<!DOCTYPE svg PUBLIC "-//W3C//DTD SVG 1.1//EN" "http://www.w3.org/Graphics/SVG/1.1/DTD/svg11.dtd">
<!-- Uploaded to: SVG Repo, www.svgrepo.com, Transformed by: SVG Repo Mixer Tools -->
<svg fill="#ffffff" height="198px" width="198px" version="1.1" id="Layer_1" xmlns="http://www.w3.org/2000/svg" xmlns:xlink="http://www.w3.org/1999/xlink" viewBox="-71.68 -71.68 655.36 655.36" xml:space="preserve" stroke="#ffffff" stroke-width="0.00512" transform="matrix(1, 0, 0, 1, 0, 0)rotate(0)">
<g id="SVGRepo_bgCarrier" stroke-width="0"/>
<g id="SVGRepo_tracerCarrier" stroke-linecap="round" stroke-linejoin="round" stroke="#CCCCCC" stroke-width="1.024"/>
<g id="SVGRepo_iconCarrier"> <g> <g> <path d="M288.681,155.234H264.17v-19.715c24.663-3.929,43.574-25.342,43.574-51.093c0-28.531-23.213-51.745-51.745-51.745 s-51.745,23.213-51.745,51.745c0,25.751,18.911,47.164,43.574,51.093v19.715h-24.511c-4.513,0-8.17,3.658-8.17,8.17 c0,4.512,3.657,8.17,8.17,8.17h24.511v27.234c0,4.512,3.657,8.17,8.17,8.17c4.513,0,8.17-3.658,8.17-8.17v-27.234h24.511 c4.513,0,8.17-3.658,8.17-8.17C296.851,158.892,293.194,155.234,288.681,155.234z M256,119.83 c-19.522,0-35.404-15.883-35.404-35.404S236.478,49.021,256,49.021s35.404,15.883,35.404,35.404S275.522,119.83,256,119.83z"/> </g> </g> <g> <g> <path d="M503.83,223.319H370.383V8.17c0-4.512-3.657-8.17-8.17-8.17H149.787c-4.513,0-8.17,3.658-8.17,8.17v190.638 c0,4.512,3.657,8.17,8.17,8.17s8.17-3.658,8.17-8.17V16.34h196.085v206.979H8.17c-4.513,0-8.17,3.658-8.17,8.17v65.362 c0,4.512,3.657,8.17,8.17,8.17h206.979v35.404c0,4.512,3.657,8.17,8.17,8.17h65.362c4.513,0,8.17-3.658,8.17-8.17v-35.404H495.66 V495.66H16.34V329.532c0-4.512-3.657-8.17-8.17-8.17S0,325.02,0,329.532V503.83c0,4.512,3.657,8.17,8.17,8.17h495.66 c4.513,0,8.17-3.658,8.17-8.17v-272.34C512,226.977,508.343,223.319,503.83,223.319z M280.511,332.255h-16.34v-24.511 c0-4.512-3.657-8.17-8.17-8.17c-4.513,0-8.17,3.658-8.17,8.17v24.511h-16.34v-49.021h49.021V332.255z M495.66,288.681H296.851 v-13.617c0-4.512-3.657-8.17-8.17-8.17h-65.362c-4.513,0-8.17,3.658-8.17,8.17v13.617H16.34V239.66H495.66V288.681z"/> </g> </g> <g> <g> <path d="M471.149,321.362c-4.513,0-8.17,3.658-8.17,8.17v93.131l-40.892-28.987c-2.83-2.007-6.619-2.007-9.449,0l-49.063,34.778 l-49.063-34.778c-2.83-2.007-6.619-2.007-9.449,0L256,428.454l-49.063-34.778c-2.83-2.007-6.619-2.007-9.449,0l-49.063,34.778 l-49.063-34.778c-2.83-2.007-6.619-2.007-9.449,0l-40.892,28.986v-93.13c0-4.512-3.657-8.17-8.17-8.17s-8.17,3.658-8.17,8.17 v108.936c0,3.056,1.704,5.855,4.418,7.258c2.716,1.404,5.985,1.174,8.476-0.593l49.063-34.778l49.063,34.778 c2.83,2.007,6.619,2.007,9.449,0l49.063-34.778l49.063,34.778c2.83,2.007,6.619,2.007,9.449,0l49.063-34.778l49.063,34.778 c2.83,2.007,6.619,2.007,9.449,0l49.063-34.778l45.617,32.336v20.287H40.851c-4.513,0-8.17,3.658-8.17,8.17s3.657,8.17,8.17,8.17 h430.298c4.513,0,8.17-3.658,8.17-8.17V329.532C479.319,325.02,475.662,321.362,471.149,321.362z"/> </g> </g> </g>
</svg>