<!DOCTYPE svg PUBLIC "-//W3C//DTD SVG 1.1//EN" "http://www.w3.org/Graphics/SVG/1.1/DTD/svg11.dtd">
<!-- Uploaded to: SVG Repo, www.svgrepo.com, Transformed by: SVG Repo Mixer Tools -->
<svg fill="#ffffff" width="64px" height="64px" viewBox="-6.72 -6.72 45.44 45.44" xmlns="http://www.w3.org/2000/svg" stroke="#ffffff" stroke-width="0.00032" transform="rotate(0)">
<g id="SVGRepo_bgCarrier" stroke-width="0"/>
<g id="SVGRepo_tracerCarrier" stroke-linecap="round" stroke-linejoin="round" stroke="#CCCCCC" stroke-width="0.256"/>
<g id="SVGRepo_iconCarrier"> <title/> <g data-name="Layer 2" id="Layer_2"> <path d="M16,14a6,6,0,1,1,6-6A6,6,0,0,1,16,14ZM16,4a4,4,0,1,0,4,4A4,4,0,0,0,16,4Z"/> <path d="M24,30H8a2,2,0,0,1-2-2V22a7,7,0,0,1,7-7h6a7,7,0,0,1,7,7v6A2,2,0,0,1,24,30ZM13,17a5,5,0,0,0-5,5v6H24V22a5,5,0,0,0-5-5Z"/> </g> </g>
</svg>